<svg width="280" height="350" viewBox="0 0 280 350" fill="none" xmlns="http://www.w3.org/2000/svg">
<rect width="280" height="350" fill="#85D32C"/>
<path d="M88.8672 80H82.3047V30.2344H88.8672V80ZM109.375 30.2344L125.645 70.8398L141.914 30.2344H150.425V80H143.862V60.6201L144.478 39.7021L128.14 80H123.115L106.812 39.8047L107.461 60.6201V80H100.898V30.2344H109.375ZM198.755 73.4717C197.069 75.887 194.71 77.6986 191.68 78.9062C188.672 80.0911 185.163 80.6836 181.152 80.6836C177.096 80.6836 173.496 79.738 170.352 77.8467C167.207 75.9326 164.769 73.221 163.037 69.7119C161.328 66.2028 160.451 62.1354 160.405 57.5098V53.1689C160.405 45.6722 162.148 39.8617 165.635 35.7373C169.144 31.613 174.066 29.5508 180.4 29.5508C185.596 29.5508 189.777 30.8838 192.944 33.5498C196.112 36.193 198.049 39.9528 198.755 44.8291H192.192C190.962 38.2438 187.043 34.9512 180.435 34.9512C176.037 34.9512 172.699 36.5007 170.42 39.5996C168.164 42.6758 167.025 47.1419 167.002 52.998V57.0654C167.002 62.6481 168.278 67.0915 170.83 70.3955C173.382 73.6768 176.834 75.3174 181.187 75.3174C183.647 75.3174 185.801 75.0439 187.646 74.4971C189.492 73.9502 191.019 73.0273 192.227 71.7285V60.5518H180.708V55.2197H198.755V73.4717Z" fill="white"/>
</svg>
